<svg width="190" height="56" viewBox="0 0 190 56" fill="none" xmlns="http://www.w3.org/2000/svg">
<path d="M61.9257 12.2281V2.14478H61.2252V6.78223H54.9267V2.14478H54.2268V12.2281H54.9267V7.43849H61.2252V12.2281H61.9257ZM68.2474 4.92263C66.1473 4.92263 64.454 6.58574 64.454 8.6412C64.454 10.6755 66.1473 12.3161 68.2474 12.3161C70.3688 12.3161 72.0853 10.6755 72.0853 8.6412C72.0853 6.58574 70.3695 4.92263 68.2474 4.92263ZM68.27 5.55769C69.9858 5.55769 71.4073 6.89204 71.4073 8.64184C71.4073 10.3698 69.9851 11.7048 68.27 11.7048C66.5535 11.7048 65.132 10.3705 65.132 8.64184C65.132 6.89204 66.5542 5.55769 68.27 5.55769ZM74.5009 5.03179V12.2281H78.4289C80.2587 12.2281 81.048 11.5064 81.048 10.2375C81.048 9.36295 80.5735 8.68486 79.5575 8.4659C80.3713 8.18079 80.6868 7.54637 80.6868 6.84709C80.6868 5.86271 80.0545 5.03115 78.3838 5.03115L74.5009 5.03179ZM75.1782 5.60136H78.3845C79.6264 5.60136 80.032 6.19148 80.032 6.91323C80.032 7.63562 79.6264 8.2251 78.3845 8.2251H75.1782V5.60136ZM75.1782 11.6605V8.72917L78.4508 8.751C79.873 8.751 80.37 9.32057 80.37 10.1945C80.37 11.0909 79.873 11.6605 78.4276 11.6605H75.1782ZM86.8727 4.92263C84.7732 4.92263 83.0792 6.58574 83.0792 8.6412C83.0792 10.6755 84.7732 12.3161 86.8727 12.3161C88.9947 12.3161 90.7112 10.6755 90.7112 8.6412C90.7112 6.58574 88.9954 4.92263 86.8727 4.92263ZM86.8959 5.55769C88.6117 5.55769 90.0325 6.89204 90.0325 8.64184C90.0325 10.3698 88.6103 11.7048 86.8959 11.7048C85.1814 11.7048 83.7579 10.3705 83.7579 8.64184C83.7572 6.89204 85.1801 5.55769 86.8959 5.55769ZM96.4901 4.92263C94.3687 4.92263 92.6735 6.58574 92.6735 8.6412C92.6735 10.6755 94.3687 12.3161 96.4901 12.3161C97.6638 12.3161 98.7255 11.8133 99.426 11.0036L98.9966 10.5657C98.365 11.2874 97.4842 11.7035 96.4915 11.7035C94.7525 11.7035 93.3541 10.3692 93.3541 8.64056C93.3541 6.89076 94.7525 5.55641 96.4915 5.55641C97.4842 5.55641 98.365 5.97122 98.9966 6.69298L99.426 6.27816C98.7255 5.44725 97.6651 4.92263 96.4901 4.92263ZM108.342 12.2281V5.03179H107.959L102.427 11.0691V5.03179H101.773V12.2281H102.134L107.643 6.19148V12.2281H108.342ZM117.103 2.14478C117.103 2.73553 116.695 2.90955 115.184 2.90955C112.429 2.90955 110.757 4.11354 110.757 6.60629V8.59753C110.757 10.7198 112.383 12.3386 114.573 12.3386C116.786 12.3386 118.39 10.6755 118.39 8.6412C118.39 6.62877 116.764 5.0106 114.643 5.0106C113.219 5.0106 111.978 5.84087 111.437 7.02239V6.45411C111.437 4.37618 112.836 3.47912 115.139 3.47912H115.343C117.058 3.47912 117.782 3.12916 117.782 2.14478H117.103V2.14478ZM114.573 5.62255C116.312 5.62255 117.711 6.95689 117.711 8.66239C117.711 10.3692 116.357 11.7253 114.573 11.7253C112.767 11.7253 111.437 10.3698 111.437 8.66239C111.436 6.95689 112.857 5.62255 114.573 5.62255ZM127.374 12.2281V5.03179H127.013L121.482 11.0691V5.03179H120.805V12.2281H121.189L126.698 6.19148V12.2281H127.374ZM134.147 4.92263C132.701 4.92263 131.439 5.77538 130.874 6.95689L130.851 5.03179H130.332V14.8744H130.986V10.391C131.552 11.5289 132.747 12.3161 134.148 12.3161C136.27 12.3161 137.918 10.6755 137.918 8.6412C137.917 6.58574 136.269 4.92263 134.147 4.92263ZM134.102 5.55769C135.841 5.55769 137.24 6.89204 137.24 8.64184C137.24 10.3698 135.841 11.7048 134.102 11.7048C132.385 11.7048 130.986 10.3705 130.986 8.64184C130.986 6.89204 132.386 5.55769 134.102 5.55769ZM143.697 4.92263C141.598 4.92263 139.904 6.58574 139.904 8.6412C139.904 10.6755 141.598 12.3161 143.697 12.3161C144.87 12.3161 145.931 11.8133 146.632 11.0036L146.204 10.5657C145.572 11.2874 144.691 11.7035 143.698 11.7035C141.982 11.7035 140.561 10.3692 140.561 8.64056C140.561 6.89076 141.983 5.55641 143.698 5.55641C144.691 5.55641 145.572 5.97122 146.204 6.69298L146.632 6.27816C145.931 5.44725 144.87 4.92263 143.697 4.92263ZM154.669 12.2281H155.436L154.038 10.1508C153.405 9.20948 153.044 8.66303 152.367 8.46654C152.908 8.24757 153.269 7.72295 153.834 6.86956L155.098 5.03243H154.308L153.294 6.56391C152.479 7.76662 152.209 8.20455 150.967 8.20455H149.724V5.03179H149.047V12.2281H149.724V8.81586H151.17C152.412 8.81586 152.704 9.23196 153.495 10.4578L154.669 12.2281ZM163.993 12.2281V5.03179H163.632L158.1 11.0691V5.03179H157.424V12.2281H157.784L163.317 6.19148V12.2281H163.993ZM170.134 4.09107C171.261 4.09107 172.165 3.34748 172.165 2.36374H171.646C171.646 3.06302 170.992 3.58828 170.135 3.58828C169.275 3.58828 168.644 3.06302 168.644 2.36374H168.102C168.101 3.34748 169.005 4.09107 170.134 4.09107ZM173.431 12.2281V5.03179H173.068L167.537 11.0691V5.03179H166.86V12.2281H167.244L172.753 6.19148V12.2281H173.431ZM54.7471 18.8132H59.8713V18.1787H54.0691V25.3969H54.7464V18.8132H54.7471ZM64.8834 18.0914C62.7607 18.0914 61.0688 19.7314 61.0688 21.7875C61.0688 23.8218 62.7614 25.4843 64.8834 25.4843C66.9823 25.4843 68.6988 23.8218 68.6988 21.7875C68.6988 19.7314 66.983 18.0914 64.8834 18.0914ZM64.8834 18.7034C66.5992 18.7034 68.0221 20.0377 68.0221 21.7875C68.0221 23.5386 66.5999 24.8505 64.8834 24.8505C63.1676 24.8505 61.768 23.5386 61.768 21.7875C61.768 20.0377 63.1676 18.7034 64.8834 18.7034ZM74.4784 18.0914C72.3795 18.0914 70.6849 19.7314 70.6849 21.7875C70.6849 23.8218 72.3789 25.4843 74.4784 25.4843C75.6521 25.4843 76.7137 24.9596 77.4136 24.1506L77.0073 23.7133C76.3532 24.435 75.4725 24.8505 74.479 24.8505C72.7632 24.8505 71.3417 23.5386 71.3417 21.7875C71.3417 20.0377 72.7639 18.7258 74.479 18.7258C75.4725 18.7258 76.3532 19.1188 77.0073 19.8406L77.4136 19.4251C76.7131 18.5942 75.6521 18.0914 74.4784 18.0914ZM86.7149 18.1787H86.0138V21.5043C86.0138 23.5598 84.8401 24.8068 83.0567 24.8068C81.4761 24.8068 80.4376 23.9104 80.4376 22.0078V18.1794H79.761V22.0514C79.761 24.2161 81.0241 25.4412 82.9884 25.4412C84.0733 25.4412 85.4273 24.9166 86.0131 23.5386V24.5878C86.0131 26.4699 85.0641 27.5192 83.1468 27.541C82.0394 27.541 81.1818 27.191 80.4144 26.6228L80.0082 27.0376C80.822 27.7169 81.8823 28.1536 83.1468 28.1311C85.4723 28.1311 86.7143 26.7094 86.7143 24.5005V18.1787H86.7149ZM97.1449 27.1255V24.7631H96.1959L93.0804 18.1787H92.7192L89.5812 24.7631H88.6335V27.1255H89.3102V25.3976H96.4895V27.1255H97.1449ZM92.8783 19.2723L95.496 24.7631H90.2817L92.8783 19.2723ZM105.791 25.3969V18.1787H105.273L105.25 20.1032C104.685 18.9005 103.422 18.0914 101.953 18.0914C99.8528 18.0914 98.2066 19.7314 98.2066 21.7875C98.2066 23.8218 99.8528 25.4843 101.953 25.4843C103.422 25.4843 104.685 24.6533 105.25 23.4718L105.273 25.3969H105.791V25.3969ZM102.022 24.8505C100.283 24.8505 98.8832 23.5386 98.8832 21.7875C98.8832 20.0377 100.283 18.7034 102.022 18.7034C103.714 18.7034 105.159 20.0377 105.159 21.7875C105.159 23.5386 103.714 24.8505 102.022 24.8505ZM112.564 18.0914C111.119 18.0914 109.855 18.9217 109.291 20.1032L109.247 18.1787H108.727V28.0438H109.405V23.538C109.945 24.6745 111.166 25.4836 112.565 25.4836C114.688 25.4836 116.335 23.8211 116.335 21.7869C116.335 19.7314 114.687 18.0914 112.564 18.0914ZM112.519 18.7258C114.258 18.7258 115.657 20.0377 115.657 21.7875C115.657 23.5386 114.258 24.8505 112.519 24.8505C110.803 24.8505 109.381 23.5386 109.381 21.7875C109.381 20.0377 110.803 18.7258 112.519 18.7258ZM122.114 18.0914C120.014 18.0914 118.298 19.7314 118.298 21.7875C118.298 23.8218 120.014 25.4843 122.114 25.4843C123.287 25.4843 124.348 24.9596 125.048 24.1506L124.62 23.7133C123.987 24.435 123.107 24.8505 122.115 24.8505C120.399 24.8505 118.976 23.5386 118.976 21.7875C118.976 20.0377 120.399 18.7258 122.115 18.7258C123.107 18.7258 123.987 19.1188 124.62 19.8406L125.048 19.4251C124.348 18.5942 123.287 18.0914 122.114 18.0914ZM130.129 18.8132H133.065V18.1787H126.539V18.8132H129.451V25.3969H130.129V18.8132ZM135.072 18.1787V25.3969H139.002C140.853 25.3969 141.62 24.6533 141.62 23.3845C141.62 22.5099 141.168 21.853 140.152 21.6129C140.942 21.3496 141.28 20.7164 141.28 19.994C141.28 19.0097 140.627 18.1787 138.977 18.1787H135.072ZM135.773 18.7702H138.957C140.198 18.7702 140.604 19.3596 140.604 20.0602C140.604 20.7819 140.198 21.3727 138.957 21.3727H135.773V18.7702ZM135.773 24.8062V21.8967H139.023C140.445 21.8967 140.942 22.4881 140.942 23.3627C140.942 24.2591 140.445 24.8062 139.023 24.8062H135.773ZM147.445 18.0914C145.21 18.0914 143.65 19.7314 143.65 21.7875C143.65 23.9971 145.255 25.4637 147.602 25.4843C148.866 25.4843 149.906 25.0251 150.717 24.3689L150.333 23.9759C149.588 24.5442 148.686 24.8948 147.602 24.8948C145.683 24.8729 144.351 23.7576 144.351 21.8973H150.966C151.078 21.505 151.011 20.7601 150.808 20.2792C150.289 18.9885 149.092 18.0914 147.445 18.0914ZM147.467 18.6822C148.822 18.6822 149.792 19.4033 150.221 20.4532C150.333 20.7601 150.401 21.1319 150.378 21.4164H144.373C144.486 19.9067 145.706 18.6822 147.467 18.6822ZM160.02 25.3969V18.1787H159.343V21.46H154.083V18.1787H153.429V25.3969H154.083V22.072H159.343V25.3969H160.02ZM169.456 25.3969V18.1787H168.801V21.46H163.542V18.1787H162.887V25.3969H163.542V22.072H168.801V25.3969H169.456ZM173 20.6509V18.1787H172.323V25.3969H175.982C178.172 25.3969 178.871 24.2154 178.871 23.0121C178.871 21.8312 178.17 20.6503 175.982 20.6503L173 20.6509ZM180.564 25.3969V18.1787H179.887V25.3969H180.564ZM173.023 24.785V21.2629H176.048C177.673 21.2629 178.192 22.0726 178.192 23.0127C178.192 23.9541 177.673 24.7856 176.048 24.7856L173.023 24.785ZM186.704 17.2387C187.832 17.2387 188.712 16.4938 188.712 15.5094H188.193C188.193 16.2106 187.539 16.7346 186.704 16.7346C185.847 16.7346 185.192 16.2106 185.192 15.5094H184.672C184.672 16.4938 185.576 17.2387 186.704 17.2387ZM190 25.3969V18.1787H189.618L184.086 24.2154V18.1787H183.431V25.3969H183.792L189.301 19.3596V25.3969H190ZM61.0231 31.3469H60.3239V34.6718C60.3239 36.7279 59.1495 37.9525 57.3661 37.9525C55.7849 37.9525 54.7471 37.0792 54.7471 35.1753V31.3469H54.0698V35.1971C54.0698 37.3617 55.3336 38.5869 57.2986 38.5869C58.3828 38.5869 59.7367 38.0841 60.3239 36.683V37.7566C60.3239 39.6156 59.3742 40.6648 57.4563 40.6867C56.3727 40.6867 55.4926 40.3367 54.7245 39.7684L54.3176 40.1832C55.1533 40.8607 56.1918 41.298 57.4556 41.298C59.8037 41.2761 61.0224 39.8545 61.0224 37.6455L61.0231 31.3469ZM70.3927 38.5432V31.3469H69.7386V34.6063H64.4779V31.3469H63.8005V38.5432H64.4772V35.2183H69.7379V38.5432H70.3927V38.5432ZM79.8286 38.5432V31.3469H79.468L73.9363 37.3617V31.3469H73.2596V38.5432H73.6433L79.1526 32.5066V38.5432H79.8286V38.5432ZM82.6962 31.3469V38.5432H86.6248C88.4765 38.5432 89.2432 37.8009 89.2432 36.5315C89.2432 35.6562 88.7913 35 87.776 34.7592C88.5659 34.4959 88.9052 33.8628 88.9052 33.1404C88.9052 32.1566 88.2723 31.3469 86.6003 31.3469H82.6962V31.3469ZM83.396 31.9165H86.5804C87.8436 31.9165 88.2266 32.5066 88.2266 33.2071C88.2266 33.9295 87.8436 34.5408 86.5804 34.5408H83.396V31.9165ZM83.396 37.9525V35.0443H86.6692C88.0689 35.0655 88.5653 35.635 88.5653 36.509C88.5653 37.4054 88.0689 37.9525 86.646 37.9525H83.396V37.9525ZM95.0686 31.2377C92.8332 31.2377 91.2745 32.9009 91.2745 34.9338C91.2745 37.1665 92.8783 38.6107 95.2257 38.6312C96.4901 38.6312 97.53 38.1715 98.3411 37.537L97.9574 37.1222C97.2118 37.6905 96.3099 38.0405 95.2257 38.0405C93.3064 38.0193 91.975 36.9039 91.975 35.0443H98.5903C98.7023 34.6718 98.6347 33.9295 98.4551 33.4255C97.9123 32.1348 96.7161 31.2377 95.0686 31.2377ZM95.0905 31.8497C96.4451 31.8497 97.416 32.5721 97.8454 33.622C97.9574 33.9051 98.025 34.3 98.0012 34.5839H92.0194C92.1102 33.053 93.3296 31.8497 95.0905 31.8497ZM105.453 31.2377C103.985 31.2377 102.722 32.0693 102.157 33.2508L102.134 31.3469H101.614V41.1895H102.292V36.683C102.833 37.8446 104.03 38.6299 105.453 38.6299C107.552 38.6299 109.201 36.9899 109.201 34.9319C109.201 32.9008 107.552 31.2377 105.453 31.2377ZM105.408 31.8715C107.124 31.8715 108.544 33.1847 108.544 34.9345C108.544 36.6849 107.122 37.9974 105.408 37.9974C103.692 37.9974 102.269 36.6849 102.269 34.9345C102.269 33.1847 103.692 31.8715 105.408 31.8715ZM115.003 31.2377C112.881 31.2377 111.187 32.9009 111.187 34.9338C111.187 36.9906 112.881 38.6312 115.003 38.6312C116.177 38.6312 117.215 38.1072 117.915 37.2975L117.51 36.8602C116.877 37.58 115.997 37.9968 115.004 37.9968C113.265 37.9968 111.867 36.6849 111.867 34.9338C111.867 33.184 113.265 31.8709 115.004 31.8709C115.997 31.8709 116.877 32.2651 117.51 32.9869L117.915 32.5721C117.215 31.7624 116.177 31.2377 115.003 31.2377ZM126.832 38.5432V31.3469H126.471L120.939 37.3617V31.3469H120.262V38.5432H120.646L126.155 32.5066V38.5432H126.832V38.5432ZM132.454 31.9601H135.388V31.3469H128.842V31.9601H131.776V38.5432H132.454V31.9601V31.9601ZM140.739 31.2377C138.504 31.2377 136.947 32.9009 136.947 34.9338C136.947 37.1665 138.549 38.6107 140.898 38.6312C142.16 38.6312 143.2 38.1715 144.013 37.537L143.629 37.1222C142.884 37.6905 141.98 38.0405 140.898 38.0405C138.979 38.0193 137.647 36.9039 137.647 35.0443H144.261C144.374 34.6718 144.305 33.9295 144.104 33.4255C143.584 32.1348 142.388 31.2377 140.739 31.2377ZM140.762 31.8497C142.116 31.8497 143.088 32.5721 143.516 33.622C143.629 33.9051 143.695 34.3 143.674 34.5839H137.692C137.782 33.053 139.002 31.8497 140.762 31.8497ZM149.206 31.9601H152.14V31.3469H145.594V31.9601H148.528V38.5432H149.206V31.9601V31.9601Z" fill="#444444"/>
<path d="M17.6544 53.9435V44.8439H16.209V48.6928H11.8741V44.8439H10.4287V53.9435H11.8741V50.0285H16.209V53.9435H17.6544V53.9435ZM21.9442 51.9093H25.6011L26.4587 53.9435H28.0618L24.224 44.8439H23.3651L19.4835 53.9435H21.0867L21.9442 51.9093ZM23.7727 47.4035L25.1054 50.5743H22.4645L23.7727 47.4035ZM33.3895 44.7566C30.726 44.7566 28.6039 46.8345 28.6039 49.3947C28.6039 51.9549 30.7267 54.054 33.3895 54.054C34.7666 54.054 36.0304 53.4632 36.9351 52.5443L35.986 51.691C35.3094 52.3466 34.4054 52.7196 33.3901 52.7196C31.5173 52.7196 30.0487 51.341 30.0487 49.3947C30.0487 47.4696 31.5173 46.0903 33.3901 46.0903C34.4061 46.0903 35.3094 46.4627 35.986 47.1183L36.9357 46.2662C36.0311 45.3474 34.7666 44.7566 33.3895 44.7566ZM42.443 46.1776H45.1979V44.8439H38.2439V46.1776H40.9982V53.9435H42.4436L42.443 46.1776ZM51.2254 44.7566C48.5851 44.7566 46.4617 46.8345 46.4617 49.3947C46.4617 51.9761 48.5844 54.054 51.2254 54.054C53.8902 54.054 56.0335 51.9761 56.0335 49.3947C56.0335 46.8345 53.8889 44.7566 51.2254 44.7566ZM51.2254 46.0897C53.0989 46.0897 54.5887 47.4689 54.5887 49.3941C54.5887 51.3397 53.0989 52.719 51.2254 52.719C49.3744 52.719 47.9058 51.341 47.9058 49.3941C47.9058 47.4696 49.3744 46.0897 51.2254 46.0897ZM64.7927 53.9435V44.8439H61.7004C59.1721 44.8439 57.6366 46.2219 57.6366 48.2119C57.6366 49.656 58.4942 50.6398 59.8494 51.1002C59.3743 51.3185 58.9468 51.7789 58.359 52.6522L57.5014 53.9435H59.1264L59.8037 52.9142C60.5705 51.777 60.9098 51.5805 61.8582 51.56H63.3486V53.9435H64.7927V53.9435ZM63.3486 46.1776V50.2468H61.5659C60.1437 50.2468 58.9919 49.6336 58.9919 48.2119C58.9919 46.8345 60.1424 46.1776 61.5659 46.1776H63.3486ZM80.1673 55.6278V52.6317H78.9479V44.8439H77.5031V52.6317H73.9807V44.8439H72.5367V52.6317H69.0375V44.8439H67.5927V53.9435H78.7225V55.6278H80.1673V55.6278ZM84.0508 51.9093H87.7091L88.5673 53.9435H90.1479L86.3094 44.8439H85.4744L81.5908 53.9435H83.1946L84.0508 51.9093ZM85.8793 47.4035L87.2114 50.5743H84.5466L85.8793 47.4035ZM98.6573 53.9435V44.8439H95.565C93.0593 44.8439 91.5019 46.2219 91.5019 48.2119C91.5019 49.656 92.3588 50.6398 93.714 51.1002C93.2627 51.3185 92.8101 51.7789 92.2236 52.6522L91.3647 53.9435H92.9903L93.6908 52.9142C94.4589 51.777 94.7751 51.5805 95.7466 51.56H97.2132V53.9435H98.6573V53.9435ZM97.2119 46.1776V50.2468H95.4298C94.0302 50.2468 92.8551 49.6336 92.8551 48.2119C92.8551 46.8345 94.0288 46.1776 95.4298 46.1776H97.2119ZM113.083 53.9435V44.8439H111.638V48.6928H107.304V44.8439H105.858V53.9435H107.304V50.0285H111.638V53.9435H113.083V53.9435ZM117.373 51.9093H121.031L121.888 53.9435H123.492L119.654 44.8439H118.796L114.914 53.9435H116.516L117.373 51.9093ZM119.224 47.4035L120.535 50.5743H117.894L119.224 47.4035ZM127.239 53.9435L132.702 44.8439H131.055L128.39 49.2406L125.702 44.8439H124.056L127.554 50.6841L125.568 53.9435H127.239V53.9435ZM140.739 53.9435H142.388L140.153 50.5968C139.587 49.7434 139.294 49.4371 138.888 49.3061C139.227 49.1321 139.52 48.8238 140.062 48.0591L142.205 44.8439H140.536L138.727 47.6211C138.187 48.3859 137.96 48.6498 137.17 48.6498H136.064V44.8439H134.617V53.9435H136.064V50.006H137.26C138.075 50.006 138.299 50.268 138.817 51.0565L140.739 53.9435ZM146.045 51.9093H149.703L150.539 53.9435H152.141L148.303 44.8439H147.468L143.585 53.9435H145.188L146.045 51.9093ZM147.873 47.4035L149.207 50.5743H146.542L147.873 47.4035Z" fill="#444444"/>
<path d="M34.1799 7.04416L39.6209 8.77213L36.3696 13.1033L39.3267 15.2031L42.5117 10.9605L45.5815 15.0727L48.5611 12.9729L45.3329 8.6848L50.5479 7.04352L49.4193 3.67619L44.2036 5.31683V0C42.9849 0 41.7661 0 40.5242 0V5.31619L35.3317 3.67555L34.1799 7.04416Z" fill="#8CD7F3"/>
<path d="M8.51138 46.6168L5.68883 47.4901L7.38342 49.7645L5.84855 50.8587L4.17782 48.6498L2.57402 50.7945L1.03982 49.7009L2.71055 47.4695L0 46.6168L0.586512 44.8439L3.2964 45.6966V42.9399C3.92731 42.9399 4.58208 42.9399 5.21565 42.9399V45.6966L7.92421 44.8439L8.51138 46.6168Z" fill="#444444"/>
<path d="M30.5226 38.5433V2.14478H21.4015V22.1593L5.84737 2.14478H0.361328V38.5433H9.48175V18.5287L25.0366 38.5433H30.5226Z" fill="#444444"/>
</svg>
